<?xml version="1.0" encoding="UTF-8" standalone="no"?>
<!DOCTYPE svg PUBLIC "-//W3C//DTD SVG 1.1//EN" "http://www.w3.org/Graphics/SVG/1.1/DTD/svg11.dtd">
<svg xmlns="http://www.w3.org/2000/svg" version="1.1" viewBox="0.00 0.00 720.00 1440.00">
<g stroke-width="2.00" fill="none" stroke-linecap="butt">
<path stroke="#708fb9" vector-effect="non-scaling-stroke" d="
  M 720.00 994.08
  Q 689.84 993.59 656.94 983.28
  Q 637.23 977.11 628.99 973.54
  C 585.46 954.67 540.89 938.15 493.57 929.43
  Q 457.88 922.85 423.81 930.48
  C 395.48 936.82 370.30 949.04 346.05 964.29
  Q 307.83 988.31 264.81 1000.41"
/>
<path stroke="#6281a9" vector-effect="non-scaling-stroke" d="
  M 264.81 1000.41
  Q 253.56 1000.63 241.94 997.53"
/>
<path stroke="#708fb9" vector-effect="non-scaling-stroke" d="
  M 241.94 997.53
  L 242.01 931.94
  A 0.85 0.85 0.0 0 1 242.82 931.09
  L 246.67 930.94
  A 0.68 0.68 0.0 0 0 247.29 930.46
  L 247.57 929.49
  Q 247.80 928.70 246.98 928.66
  L 242.60 928.43
  A 0.57 0.56 -88.4 0 1 242.07 927.86
  L 242.06 912.05
  Q 242.06 911.22 241.23 911.25
  Q 241.06 911.26 240.86 911.24
  A 0.79 0.78 1.4 0 0 240.03 912.02
  L 239.98 927.61
  A 0.85 0.85 0.0 0 1 239.14 928.46
  L 235.69 928.51
  A 0.69 0.68 -90.0 0 1 235.00 927.81
  L 235.12 914.50
  Q 235.13 914.05 234.70 913.90
  Q 232.65 913.19 232.76 915.00
  Q 233.15 921.35 232.96 927.81
  A 0.71 0.71 0.0 0 1 232.25 928.50
  L 229.79 928.50
  Q 229.14 928.50 229.14 927.85
  L 229.13 912.94
  A 1.32 1.32 0.0 0 0 228.29 911.71
  Q 226.62 911.04 226.72 913.34
  Q 227.04 920.61 227.02 927.52
  A 1.04 1.04 0.0 0 1 225.80 928.54
  Q 223.72 928.18 221.73 928.71
  A 1.12 1.12 0.0 0 0 221.99 930.92
  L 226.32 931.04
  A 0.65 0.64 0.9 0 1 226.95 931.68
  L 226.96 996.77"
/>
<path stroke="#6281a9" vector-effect="non-scaling-stroke" d="
  M 226.96 996.77
  Q 211.93 997.68 198.09 996.92"
/>
<path stroke="#5e7ba2" vector-effect="non-scaling-stroke" d="
  M 198.09 996.92
  Q 174.84 987.19 157.26 981.72
  C 113.55 968.10 64.58 963.80 18.50 966.49
  Q 9.08 967.04 0.00 968.87"
/>
<path stroke="#4f546a" vector-effect="non-scaling-stroke" d="
  M 241.94 997.53
  Q 240.71 995.49 240.28 997.21"
/>
<path stroke="#708fb9" vector-effect="non-scaling-stroke" d="
  M 240.28 997.21
  L 239.95 973.59
  A 0.58 0.58 0.0 0 0 239.32 973.02
  L 235.65 973.33
  Q 235.07 973.38 235.07 973.96
  L 234.82 997.35"
/>
<path stroke="#4f546a" vector-effect="non-scaling-stroke" d="
  M 234.82 997.35
  Q 233.39 997.67 232.59 997.38"
/>
<path stroke="#708fb9" vector-effect="non-scaling-stroke" d="
  M 232.59 997.38
  Q 233.17 996.68 233.20 995.24
  Q 233.42 984.43 232.94 973.57
  A 0.63 0.63 0.0 0 0 232.27 972.97
  L 229.64 973.14
  Q 229.00 973.19 229.00 973.83
  L 228.94 996.95"
/>
<path stroke="#4f546a" vector-effect="non-scaling-stroke" d="
  M 228.94 996.95
  Q 227.90 997.21 226.96 996.77"
/>
<path stroke="#708fb9" vector-effect="non-scaling-stroke" d="
  M 233.0419 931.7381
  A 0.70 0.70 0.0 0 0 232.3518 931.0284
  L 229.7520 930.9921
  A 0.70 0.70 0.0 0 0 229.0423 931.6823
  L 228.9781 936.2819
  A 0.70 0.70 0.0 0 0 229.6682 936.9916
  L 232.2680 937.0279
  A 0.70 0.70 0.0 0 0 232.9777 936.3377
  L 233.0419 931.7381"
/>
<path stroke="#708fb9" vector-effect="non-scaling-stroke" d="
  M 240.0272 931.8107
  A 0.76 0.76 0.0 0 0 239.2765 931.0415
  L 235.7968 930.9990
  A 0.76 0.76 0.0 0 0 235.0276 931.7496
  L 234.9728 936.2293
  A 0.76 0.76 0.0 0 0 235.7235 936.9985
  L 239.2032 937.0410
  A 0.76 0.76 0.0 0 0 239.9724 936.2904
  L 240.0272 931.8107"
/>
<path stroke="#708fb9" vector-effect="non-scaling-stroke" d="
  M 233.1794 950.8811
  A 0.84 0.84 0.0 0 0 232.3438 950.0367
  L 229.8238 950.0235
  A 0.84 0.84 0.0 0 0 228.9795 950.8591
  L 228.8806 969.7389
  A 0.84 0.84 0.0 0 0 229.7162 970.5833
  L 232.2362 970.5965
  A 0.84 0.84 0.0 0 0 233.0805 969.7609
  L 233.1794 950.8811"
/>
<path stroke="#708fb9" vector-effect="non-scaling-stroke" d="
  M 240.0558 950.4610
  A 0.44 0.44 0.0 0 0 239.6143 950.0226
  L 235.3143 950.0376
  A 0.44 0.44 0.0 0 0 234.8758 950.4791
  L 234.9442 970.0590
  A 0.44 0.44 0.0 0 0 235.3857 970.4974
  L 239.6857 970.4824
  A 0.44 0.44 0.0 0 0 240.1242 970.0409
  L 240.0558 950.4610"
/>
<path stroke="#4f546a" vector-effect="non-scaling-stroke" d="
  M 720.00 1052.66
  L 697.80 1043.74"
/>
<path stroke="#4a4f63" vector-effect="non-scaling-stroke" d="
  M 697.80 1043.74
  C 684.41 1037.70 669.97 1030.35 657.77 1025.31
  C 618.94 1009.24 578.27 1001.39 536.06 1003.17
  Q 485.28 1005.32 435.94 1017.44
  C 412.85 1023.11 387.15 1031.31 359.53 1035.14"
/>
<path stroke="#4f546a" vector-effect="non-scaling-stroke" d="
  M 359.53 1035.14
  Q 355.90 1034.37 355.05 1033.97
  C 326.51 1020.86 302.24 1010.57 273.41 1003.39
  C 270.40 1002.64 267.53 1002.64 264.81 1000.41"
/>
<path stroke="#3d4153" vector-effect="non-scaling-stroke" d="
  M 198.09 996.92
  Q 197.77 996.84 197.48 997.15
  Q 197.16 997.51 196.68 997.56
  Q 163.33 1001.51 141.06 1007.05
  Q 86.69 1020.60 31.99 1032.68
  Q 15.86 1036.25 0.00 1035.48"
/>
<path stroke="#6281a9" vector-effect="non-scaling-stroke" d="
  M 232.59 997.38
  L 228.94 996.95"
/>
<path stroke="#6281a9" vector-effect="non-scaling-stroke" d="
  M 240.28 997.21
  Q 239.23 998.59 234.82 997.35"
/>
<path stroke="#3d4153" vector-effect="non-scaling-stroke" d="
  M 359.53 1035.14
  Q 359.27 1036.15 359.82 1036.42
  C 397.36 1054.58 440.38 1058.41 481.24 1050.49
  Q 500.21 1046.82 519.20 1043.26
  C 576.92 1032.45 638.21 1029.47 695.00 1044.48
  Q 696.81 1044.96 697.80 1043.74"
/>
<path stroke="#363b4c" vector-effect="non-scaling-stroke" d="
  M 720.00 1129.58
  Q 698.47 1136.06 680.75 1139.02
  C 651.61 1143.89 616.61 1140.87 590.33 1127.65
  Q 567.93 1116.37 560.95 1113.02
  C 519.10 1092.94 472.40 1084.83 425.31 1086.13
  C 387.11 1087.19 349.97 1092.11 311.53 1100.39
  C 268.34 1109.70 224.19 1108.57 183.73 1089.29
  C 151.92 1074.13 120.98 1060.79 86.31 1053.43
  C 57.84 1047.39 28.76 1048.19 0.00 1051.34"
/>
<path stroke="#232832" vector-effect="non-scaling-stroke" d="
  M 720.00 1228.86
  L 694.27 1236.13
  Q 693.77 1236.26 693.81 1236.78
  L 694.80 1251.98
  A 1.70 1.70 0.0 0 1 692.84 1253.77
  L 663.68 1249.11"
/>
<path stroke="#43495c" vector-effect="non-scaling-stroke" d="
  M 663.68 1249.11
  C 664.85 1246.48 662.87 1242.45 667.43 1242.10
  Q 670.76 1241.84 673.53 1239.86
  A 1.04 1.03 72.9 0 0 673.96 1239.04
  Q 674.01 1234.57 674.01 1230.12
  C 674.01 1224.94 667.08 1223.65 663.58 1221.65
  Q 663.14 1221.40 662.65 1221.51
  L 658.27 1222.44"
/>
<path stroke="#4d596c" vector-effect="non-scaling-stroke" d="
  M 658.27 1222.44
  L 616.25 1231.81"
/>
<path stroke="#57769b" vector-effect="non-scaling-stroke" d="
  M 616.25 1231.81
  C 609.72 1233.30 601.30 1236.21 594.91 1234.95"
/>
<path stroke="#232832" vector-effect="non-scaling-stroke" d="
  M 594.91 1234.95
  L 577.96 1234.53"
/>
<path stroke="#57769b" vector-effect="non-scaling-stroke" d="
  M 577.96 1234.53
  Q 572.76 1226.92 570.69 1225.06
  Q 569.40 1223.91 568.27 1224.97"
/>
<path stroke="#232832" vector-effect="non-scaling-stroke" d="
  M 568.27 1224.97
  Q 568.54 1224.44 566.88 1224.77"
/>
<path stroke="#57769b" vector-effect="non-scaling-stroke" d="
  M 566.88 1224.77
  L 549.70 1224.76
  Q 549.19 1224.76 548.90 1225.18
  L 547.02 1227.93
  Q 546.69 1228.40 546.12 1228.41
  L 499.01 1228.72"
/>
<path stroke="#4d596c" vector-effect="non-scaling-stroke" d="
  M 499.01 1228.72
  Q 428.10 1229.71 354.75 1218.75
  Q 290.02 1209.08 253.29 1202.87"
/>
<path stroke="#232832" vector-effect="non-scaling-stroke" d="
  M 253.29 1202.87
  Q 255.80 1190.22 246.05 1182.98
  A 1.07 1.07 0.0 0 1 245.81 1181.51
  C 255.63 1167.23 235.19 1152.56 224.90 1166.86
  C 220.84 1172.51 222.87 1176.41 225.41 1181.92
  Q 225.64 1182.43 225.19 1182.77
  Q 218.28 1188.03 217.05 1197.01"
/>
<path stroke="#4d596c" vector-effect="non-scaling-stroke" d="
  M 217.05 1197.01
  Q 153.51 1189.39 89.64 1189.01
  Q 89.16 1189.01 88.92 1189.22
  Q 88.45 1189.62 88.96 1190.29
  A 0.63 0.63 0.0 0 0 89.44 1190.54
  C 132.46 1192.01 174.99 1193.99 217.67 1199.25"
/>
<path stroke="#232832" vector-effect="non-scaling-stroke" d="
  M 217.67 1199.25
  C 217.78 1204.08 220.91 1207.64 220.73 1211.85"
/>
<path stroke="#4d596c" vector-effect="non-scaling-stroke" d="
  M 220.73 1211.85
  C 175.13 1203.93 130.70 1200.47 83.25 1199.01"
/>
<path stroke="#363b4c" vector-effect="non-scaling-stroke" d="
  M 83.25 1199.01
  L 80.73 1198.92"
/>
<path stroke="#232832" vector-effect="non-scaling-stroke" d="
  M 80.73 1198.92
  Q 79.92 1196.85 80.01 1195.23
  A 0.85 0.85 0.0 0 1 80.59 1194.48
  L 87.51 1192.11
  A 0.68 0.68 0.0 0 0 87.31 1190.78
  C 79.19 1190.56 70.59 1189.47 62.35 1190.28
  A 0.41 0.40 53.1 0 0 62.24 1191.06
  L 71.83 1194.89
  Q 72.21 1195.04 72.34 1195.43
  Q 72.81 1196.84 72.18 1198.74"
/>
<path stroke="#363b4c" vector-effect="non-scaling-stroke" d="
  M 72.18 1198.74
  L 6.73 1197.54
  A 0.34 0.34 0.0 0 0 6.49 1197.64
  Q 6.39 1197.73 6.30 1197.83
  A 0.22 0.22 0.0 0 0 6.45 1198.20
  C 10.76 1198.28 15.13 1199.22 19.13 1199.30
  Q 45.83 1199.79 72.49 1200.78"
/>
<path stroke="#232832" vector-effect="non-scaling-stroke" d="
  M 72.49 1200.78
  L 72.91 1212.62
  A 0.70 0.70 0.0 0 1 72.14 1213.34
  L 0.00 1205.92"
/>
<path stroke="#232832" vector-effect="non-scaling-stroke" d="
  M 59.21 1188.08
  Q 60.95 1188.31 65.00 1188.44
  Q 78.58 1188.89 92.17 1188.73
  Q 92.65 1188.72 92.97 1188.36
  C 102.70 1177.17 103.88 1163.90 93.29 1153.12
  Q 92.94 1152.75 92.98 1152.25
  C 93.25 1148.85 95.06 1145.76 95.20 1141.83
  C 95.68 1128.20 82.11 1119.15 69.70 1123.55
  C 61.80 1126.34 56.14 1134.58 57.00 1143.19
  C 57.28 1145.99 58.39 1148.92 59.49 1151.79
  Q 59.69 1152.30 59.31 1152.70
  C 49.84 1162.60 49.24 1176.83 58.32 1187.59
  Q 58.67 1188.00 59.21 1188.08"
/>
<path stroke="#232832" vector-effect="non-scaling-stroke" d="
  M 691.94 1216.33
  Q 692.47 1216.76 693.33 1216.24
  Q 693.74 1215.99 694.03 1215.61
  Q 696.16 1212.84 696.78 1209.01
  Q 699.13 1194.57 687.34 1187.14
  A 0.89 0.89 0.0 0 1 687.08 1185.88
  Q 694.31 1175.28 687.87 1166.92
  C 675.96 1151.44 652.06 1168.99 665.59 1185.40
  Q 665.98 1185.88 665.50 1186.26
  Q 646.53 1201.52 661.77 1220.96
  Q 662.09 1221.37 662.60 1221.28
  C 670.70 1219.74 681.60 1216.24 690.96 1216.00
  Q 691.51 1215.99 691.94 1216.33"
/>
<path stroke="#313645" vector-effect="non-scaling-stroke" d="
  M 677.75 1226.72
  L 677.54 1238.21
  Q 677.51 1239.97 679.23 1239.57
  L 686.73 1237.82
  Q 687.26 1237.69 687.39 1237.17
  C 687.98 1234.86 686.79 1232.99 686.52 1231.32
  Q 685.95 1227.76 686.36 1224.40
  A 0.78 0.78 0.0 0 0 685.38 1223.56
  L 678.81 1225.36
  A 1.45 1.44 -7.3 0 0 677.75 1226.72"
/>
<path stroke="#465160" vector-effect="non-scaling-stroke" d="
  M 253.29 1202.87
  L 217.05 1197.01"
/>
<path stroke="#799fc9" vector-effect="non-scaling-stroke" d="
  M 499.01 1228.72
  Q 497.82 1229.23 496.25 1229.02
  Q 494.53 1228.80 494.24 1230.21
  A 0.45 0.45 0.0 0 0 494.72 1230.75
  Q 495.68 1230.67 496.25 1231.00"
/>
<path stroke="#4d596c" vector-effect="non-scaling-stroke" d="
  M 496.25 1231.00
  Q 433.39 1231.70 373.00 1223.50
  Q 316.30 1215.80 252.61 1204.76"
/>
<path stroke="#465160" vector-effect="non-scaling-stroke" d="
  M 252.61 1204.76
  L 217.67 1199.25"
/>
<path stroke="#2f3340" vector-effect="non-scaling-stroke" d="
  M 80.73 1198.92
  L 72.18 1198.74"
/>
<path stroke="#586479" vector-effect="non-scaling-stroke" d="
  M 83.25 1199.01
  Q 82.93 1199.75 83.32 1200.93"
/>
<path stroke="#363b4c" vector-effect="non-scaling-stroke" d="
  M 83.32 1200.93
  L 80.41 1201.01"
/>
<path stroke="#2f3340" vector-effect="non-scaling-stroke" d="
  M 80.41 1201.01
  L 72.49 1200.78"
/>
<path stroke="#465160" vector-effect="non-scaling-stroke" d="
  M 220.73 1211.85
  L 243.16 1215.69"
/>
<path stroke="#4d596c" vector-effect="non-scaling-stroke" d="
  M 243.16 1215.69
  C 310.38 1226.95 370.09 1236.60 434.06 1238.33
  Q 445.06 1238.63 455.97 1239.02"
/>
<path stroke="#799fc9" vector-effect="non-scaling-stroke" d="
  M 455.97 1239.02
  Q 455.67 1239.49 456.77 1241.00"
/>
<path stroke="#4d596c" vector-effect="non-scaling-stroke" d="
  M 456.77 1241.00
  Q 393.88 1240.52 331.69 1231.52
  Q 284.50 1224.70 237.96 1217.00"
/>
<path stroke="#465160" vector-effect="non-scaling-stroke" d="
  M 237.96 1217.00
  L 233.59 1216.45"
/>
<path stroke="#4d596c" vector-effect="non-scaling-stroke" d="
  M 233.59 1216.45
  Q 191.14 1208.15 145.31 1204.44
  Q 112.41 1201.78 83.32 1200.93"
/>
<path stroke="#232832" vector-effect="non-scaling-stroke" d="
  M 252.61 1204.76
  C 251.03 1209.46 246.99 1212.69 243.16 1215.69"
/>
<path stroke="#232832" vector-effect="non-scaling-stroke" d="
  M 80.41 1201.01
  L 80.12 1213.81
  Q 80.11 1214.15 80.45 1214.19
  L 232.34 1230.33
  Q 232.94 1230.40 232.97 1229.79
  L 233.59 1216.45"
/>
<path stroke="#232832" vector-effect="non-scaling-stroke" d="
  M 237.96 1217.00
  L 237.91 1230.23
  A 0.86 0.85 -87.0 0 0 238.67 1231.08
  Q 279.08 1235.58 319.68 1240.12
  C 391.40 1248.14 464.06 1251.41 536.21 1251.77
  Q 536.85 1251.77 536.61 1251.17
  L 534.52 1245.89
  A 0.94 0.94 0.0 0 0 533.69 1245.29
  L 523.81 1244.80
  A 1.03 0.85 32.5 0 1 523.23 1243.03
  Q 523.83 1242.85 523.95 1241.36"
/>
<path stroke="#506d8f" vector-effect="non-scaling-stroke" d="
  M 523.95 1241.36
  L 528.67 1241.73
  Q 529.17 1241.77 529.37 1241.32
  Q 530.49 1238.75 530.31 1236.24"
/>
<path stroke="#232832" vector-effect="non-scaling-stroke" d="
  M 530.31 1236.24
  Q 529.05 1234.22 531.25 1233.75
  Q 534.68 1233.02 543.10 1234.26"
/>
<path stroke="#506d8f" vector-effect="non-scaling-stroke" d="
  M 543.10 1234.26
  L 566.41 1234.53
  Q 566.97 1234.53 566.96 1233.98
  L 566.88 1224.77"
/>
<path stroke="#506d8f" vector-effect="non-scaling-stroke" d="
  M 568.27 1224.97
  L 568.10 1233.83
  Q 568.09 1234.44 568.69 1234.44
  L 577.96 1234.53"
/>
<path stroke="#506d8f" vector-effect="non-scaling-stroke" d="
  M 594.91 1234.95
  L 596.29 1239.49
  Q 596.45 1240.01 597.00 1239.97
  L 600.59 1239.74"
/>
<path stroke="#232832" vector-effect="non-scaling-stroke" d="
  M 600.59 1239.74
  L 602.81 1243.46
  A 1.02 1.02 0.0 0 1 601.93 1245.01
  L 590.19 1244.93
  A 1.76 1.76 0.0 0 0 588.47 1246.30
  L 587.66 1249.93
  Q 587.45 1250.86 588.41 1250.81
  Q 614.85 1249.43 640.57 1245.89"
/>
<path stroke="#465160" vector-effect="non-scaling-stroke" d="
  M 640.57 1245.89
  L 647.67 1246.67"
/>
<path stroke="#3c4150" vector-effect="non-scaling-stroke" d="
  M 647.67 1246.67
  L 663.68 1249.11"
/>
<path stroke="#232832" vector-effect="non-scaling-stroke" d="
  M 575.92 1245.53
  A 0.73 0.73 0.0 0 0 575.21 1245.00
  L 548.91 1245.02
  A 0.73 0.73 0.0 0 0 548.22 1245.53
  L 546.43 1251.05
  A 0.73 0.73 0.0 0 0 547.14 1252.00
  L 576.64 1251.55
  A 0.73 0.73 0.0 0 0 577.34 1250.63
  L 575.92 1245.53"
/>
<path stroke="#57769b" vector-effect="non-scaling-stroke" d="
  M 496.25 1231.00
  L 544.27 1231.02
  Q 544.97 1231.02 544.62 1231.63
  L 543.10 1234.26"
/>
<path stroke="#57769b" vector-effect="non-scaling-stroke" d="
  M 530.31 1236.24
  L 525.49 1238.42
  A 1.05 0.94 -54.4 0 1 525.08 1238.51
  L 455.97 1239.02"
/>
<path stroke="#57769b" vector-effect="non-scaling-stroke" d="
  M 456.77 1241.00
  L 523.95 1241.36"
/>
<path stroke="#66728a" vector-effect="non-scaling-stroke" d="
  M 647.67 1246.67
  Q 651.60 1244.46 657.29 1244.05
  A 1.48 1.47 0.9 0 0 658.65 1242.74
  Q 659.73 1232.72 658.27 1222.44"
/>
<path stroke="#4d596c" vector-effect="non-scaling-stroke" d="
  M 640.57 1245.89
  L 616.34 1241.99"
/>
<path stroke="#799fc9" vector-effect="non-scaling-stroke" d="
  M 616.34 1241.99
  Q 618.46 1237.15 616.25 1231.81"
/>
<path stroke="#57769b" vector-effect="non-scaling-stroke" d="
  M 616.34 1241.99
  L 600.59 1239.74"
/>
</g>
<path fill="#83bbf8" d="
  M 0.00 0.00
  L 720.00 0.00
  L 720.00 994.08
  Q 689.84 993.59 656.94 983.28
  Q 637.23 977.11 628.99 973.54
  C 585.46 954.67 540.89 938.15 493.57 929.43
  Q 457.88 922.85 423.81 930.48
  C 395.48 936.82 370.30 949.04 346.05 964.29
  Q 307.83 988.31 264.81 1000.41
  Q 253.56 1000.63 241.94 997.53
  L 242.01 931.94
  A 0.85 0.85 0.0 0 1 242.82 931.09
  L 246.67 930.94
  A 0.68 0.68 0.0 0 0 247.29 930.46
  L 247.57 929.49
  Q 247.80 928.70 246.98 928.66
  L 242.60 928.43
  A 0.57 0.56 -88.4 0 1 242.07 927.86
  L 242.06 912.05
  Q 242.06 911.22 241.23 911.25
  Q 241.06 911.26 240.86 911.24
  A 0.79 0.78 1.4 0 0 240.03 912.02
  L 239.98 927.61
  A 0.85 0.85 0.0 0 1 239.14 928.46
  L 235.69 928.51
  A 0.69 0.68 -90.0 0 1 235.00 927.81
  L 235.12 914.50
  Q 235.13 914.05 234.70 913.90
  Q 232.65 913.19 232.76 915.00
  Q 233.15 921.35 232.96 927.81
  A 0.71 0.71 0.0 0 1 232.25 928.50
  L 229.79 928.50
  Q 229.14 928.50 229.14 927.85
  L 229.13 912.94
  A 1.32 1.32 0.0 0 0 228.29 911.71
  Q 226.62 911.04 226.72 913.34
  Q 227.04 920.61 227.02 927.52
  A 1.04 1.04 0.0 0 1 225.80 928.54
  Q 223.72 928.18 221.73 928.71
  A 1.12 1.12 0.0 0 0 221.99 930.92
  L 226.32 931.04
  A 0.65 0.64 0.9 0 1 226.95 931.68
  L 226.96 996.77
  Q 211.93 997.68 198.09 996.92
  Q 174.84 987.19 157.26 981.72
  C 113.55 968.10 64.58 963.80 18.50 966.49
  Q 9.08 967.04 0.00 968.87
  L 0.00 0.00
  Z"
/>
<path fill="#5c627a" d="
  M 241.94 997.53
  Q 240.71 995.49 240.28 997.21
  L 239.95 973.59
  A 0.58 0.58 0.0 0 0 239.32 973.02
  L 235.65 973.33
  Q 235.07 973.38 235.07 973.96
  L 234.82 997.35
  Q 233.39 997.67 232.59 997.38
  Q 233.17 996.68 233.20 995.24
  Q 233.42 984.43 232.94 973.57
  A 0.63 0.63 0.0 0 0 232.27 972.97
  L 229.64 973.14
  Q 229.00 973.19 229.00 973.83
  L 228.94 996.95
  Q 227.90 997.21 226.96 996.77
  L 226.95 931.68
  A 0.65 0.64 0.9 0 0 226.32 931.04
  L 221.99 930.92
  A 1.12 1.12 0.0 0 1 221.73 928.71
  Q 223.72 928.18 225.80 928.54
  A 1.04 1.04 0.0 0 0 227.02 927.52
  Q 227.04 920.61 226.72 913.34
  Q 226.62 911.04 228.29 911.71
  A 1.32 1.32 0.0 0 1 229.13 912.94
  L 229.14 927.85
  Q 229.14 928.50 229.79 928.50
  L 232.25 928.50
  A 0.71 0.71 0.0 0 0 232.96 927.81
  Q 233.15 921.35 232.76 915.00
  Q 232.65 913.19 234.70 913.90
  Q 235.13 914.05 235.12 914.50
  L 235.00 927.81
  A 0.69 0.68 -90.0 0 0 235.69 928.51
  L 239.14 928.46
  A 0.85 0.85 0.0 0 0 239.98 927.61
  L 240.03 912.02
  A 0.79 0.78 1.4 0 1 240.86 911.24
  Q 241.06 911.26 241.23 911.25
  Q 242.06 911.22 242.06 912.05
  L 242.07 927.86
  A 0.57 0.56 -88.4 0 0 242.60 928.43
  L 246.98 928.66
  Q 247.80 928.70 247.57 929.49
  L 247.29 930.46
  A 0.68 0.68 0.0 0 1 246.67 930.94
  L 242.82 931.09
  A 0.85 0.85 0.0 0 0 242.01 931.94
  L 241.94 997.53
  Z
  M 233.0419 931.7381
  A 0.70 0.70 0.0 0 0 232.3518 931.0284
  L 229.7520 930.9921
  A 0.70 0.70 0.0 0 0 229.0423 931.6823
  L 228.9781 936.2819
  A 0.70 0.70 0.0 0 0 229.6682 936.9916
  L 232.2680 937.0279
  A 0.70 0.70 0.0 0 0 232.9777 936.3377
  L 233.0419 931.7381
  Z
  M 240.0272 931.8107
  A 0.76 0.76 0.0 0 0 239.2765 931.0415
  L 235.7968 930.9990
  A 0.76 0.76 0.0 0 0 235.0276 931.7496
  L 234.9728 936.2293
  A 0.76 0.76 0.0 0 0 235.7235 936.9985
  L 239.2032 937.0410
  A 0.76 0.76 0.0 0 0 239.9724 936.2904
  L 240.0272 931.8107
  Z
  M 233.1794 950.8811
  A 0.84 0.84 0.0 0 0 232.3438 950.0367
  L 229.8238 950.0235
  A 0.84 0.84 0.0 0 0 228.9795 950.8591
  L 228.8806 969.7389
  A 0.84 0.84 0.0 0 0 229.7162 970.5833
  L 232.2362 970.5965
  A 0.84 0.84 0.0 0 0 233.0805 969.7609
  L 233.1794 950.8811
  Z
  M 240.0558 950.4610
  A 0.44 0.44 0.0 0 0 239.6143 950.0226
  L 235.3143 950.0376
  A 0.44 0.44 0.0 0 0 234.8758 950.4791
  L 234.9442 970.0590
  A 0.44 0.44 0.0 0 0 235.3857 970.4974
  L 239.6857 970.4824
  A 0.44 0.44 0.0 0 0 240.1242 970.0409
  L 240.0558 950.4610
  Z"
/>
<path fill="#5c627a" d="
  M 720.00 994.08
  L 720.00 1052.66
  L 697.80 1043.74
  C 684.41 1037.70 669.97 1030.35 657.77 1025.31
  C 618.94 1009.24 578.27 1001.39 536.06 1003.17
  Q 485.28 1005.32 435.94 1017.44
  C 412.85 1023.11 387.15 1031.31 359.53 1035.14
  Q 355.90 1034.37 355.05 1033.97
  C 326.51 1020.86 302.24 1010.57 273.41 1003.39
  C 270.40 1002.64 267.53 1002.64 264.81 1000.41
  Q 307.83 988.31 346.05 964.29
  C 370.30 949.04 395.48 936.82 423.81 930.48
  Q 457.88 922.85 493.57 929.43
  C 540.89 938.15 585.46 954.67 628.99 973.54
  Q 637.23 977.11 656.94 983.28
  Q 689.84 993.59 720.00 994.08
  Z"
/>
<rect fill="#83bbf8" x="-2.00" y="-3.00" transform="translate(231.01,934.01) rotate(0.8)" width="4.00" height="6.00" rx="0.70"/>
<rect fill="#83bbf8" x="-2.50" y="-3.00" transform="translate(237.50,934.02) rotate(0.7)" width="5.00" height="6.00" rx="0.76"/>
<rect fill="#83bbf8" x="-2.10" y="-10.28" transform="translate(231.03,960.31) rotate(0.3)" width="4.20" height="20.56" rx="0.84"/>
<rect fill="#83bbf8" x="-2.59" y="-10.23" transform="translate(237.50,960.26) rotate(-0.2)" width="5.18" height="20.46" rx="0.44"/>
<path fill="#383b4c" d="
  M 198.09 996.92
  Q 197.77 996.84 197.48 997.15
  Q 197.16 997.51 196.68 997.56
  Q 163.33 1001.51 141.06 1007.05
  Q 86.69 1020.60 31.99 1032.68
  Q 15.86 1036.25 0.00 1035.48
  L 0.00 968.87
  Q 9.08 967.04 18.50 966.49
  C 64.58 963.80 113.55 968.10 157.26 981.72
  Q 174.84 987.19 198.09 996.92
  Z"
/>
<path fill="#83bbf8" d="
  M 232.59 997.38
  L 228.94 996.95
  L 229.00 973.83
  Q 229.00 973.19 229.64 973.14
  L 232.27 972.97
  A 0.63 0.63 0.0 0 1 232.94 973.57
  Q 233.42 984.43 233.20 995.24
  Q 233.17 996.68 232.59 997.38
  Z"
/>
<path fill="#83bbf8" d="
  M 240.28 997.21
  Q 239.23 998.59 234.82 997.35
  L 235.07 973.96
  Q 235.07 973.38 235.65 973.33
  L 239.32 973.02
  A 0.58 0.58 0.0 0 1 239.95 973.59
  L 240.28 997.21
  Z"
/>
<path fill="#414659" d="
  M 198.09 996.92
  Q 211.93 997.68 226.96 996.77
  Q 227.90 997.21 228.94 996.95
  L 232.59 997.38
  Q 233.39 997.67 234.82 997.35
  Q 239.23 998.59 240.28 997.21
  Q 240.71 995.49 241.94 997.53
  Q 253.56 1000.63 264.81 1000.41
  C 267.53 1002.64 270.40 1002.64 273.41 1003.39
  C 302.24 1010.57 326.51 1020.86 355.05 1033.97
  Q 355.90 1034.37 359.53 1035.14
  Q 359.27 1036.15 359.82 1036.42
  C 397.36 1054.58 440.38 1058.41 481.24 1050.49
  Q 500.21 1046.82 519.20 1043.26
  C 576.92 1032.45 638.21 1029.47 695.00 1044.48
  Q 696.81 1044.96 697.80 1043.74
  L 720.00 1052.66
  L 720.00 1129.58
  Q 698.47 1136.06 680.75 1139.02
  C 651.61 1143.89 616.61 1140.87 590.33 1127.65
  Q 567.93 1116.37 560.95 1113.02
  C 519.10 1092.94 472.40 1084.83 425.31 1086.13
  C 387.11 1087.19 349.97 1092.11 311.53 1100.39
  C 268.34 1109.70 224.19 1108.57 183.73 1089.29
  C 151.92 1074.13 120.98 1060.79 86.31 1053.43
  C 57.84 1047.39 28.76 1048.19 0.00 1051.34
  L 0.00 1035.48
  Q 15.86 1036.25 31.99 1032.68
  Q 86.69 1020.60 141.06 1007.05
  Q 163.33 1001.51 196.68 997.56
  Q 197.16 997.51 197.48 997.15
  Q 197.77 996.84 198.09 996.92
  Z"
/>
<path fill="#383b4c" d="
  M 697.80 1043.74
  Q 696.81 1044.96 695.00 1044.48
  C 638.21 1029.47 576.92 1032.45 519.20 1043.26
  Q 500.21 1046.82 481.24 1050.49
  C 440.38 1058.41 397.36 1054.58 359.82 1036.42
  Q 359.27 1036.15 359.53 1035.14
  C 387.15 1031.31 412.85 1023.11 435.94 1017.44
  Q 485.28 1005.32 536.06 1003.17
  C 578.27 1001.39 618.94 1009.24 657.77 1025.31
  C 669.97 1030.35 684.41 1037.70 697.80 1043.74
  Z"
/>
<path fill="#2a303e" d="
  M 720.00 1129.58
  L 720.00 1228.86
  L 694.27 1236.13
  Q 693.77 1236.26 693.81 1236.78
  L 694.80 1251.98
  A 1.70 1.70 0.0 0 1 692.84 1253.77
  L 663.68 1249.11
  C 664.85 1246.48 662.87 1242.45 667.43 1242.10
  Q 670.76 1241.84 673.53 1239.86
  A 1.04 1.03 72.9 0 0 673.96 1239.04
  Q 674.01 1234.57 674.01 1230.12
  C 674.01 1224.94 667.08 1223.65 663.58 1221.65
  Q 663.14 1221.40 662.65 1221.51
  L 658.27 1222.44
  L 616.25 1231.81
  C 609.72 1233.30 601.30 1236.21 594.91 1234.95
  L 577.96 1234.53
  Q 572.76 1226.92 570.69 1225.06
  Q 569.40 1223.91 568.27 1224.97
  Q 568.54 1224.44 566.88 1224.77
  L 549.70 1224.76
  Q 549.19 1224.76 548.90 1225.18
  L 547.02 1227.93
  Q 546.69 1228.40 546.12 1228.41
  L 499.01 1228.72
  Q 428.10 1229.71 354.75 1218.75
  Q 290.02 1209.08 253.29 1202.87
  Q 255.80 1190.22 246.05 1182.98
  A 1.07 1.07 0.0 0 1 245.81 1181.51
  C 255.63 1167.23 235.19 1152.56 224.90 1166.86
  C 220.84 1172.51 222.87 1176.41 225.41 1181.92
  Q 225.64 1182.43 225.19 1182.77
  Q 218.28 1188.03 217.05 1197.01
  Q 153.51 1189.39 89.64 1189.01
  Q 89.16 1189.01 88.92 1189.22
  Q 88.45 1189.62 88.96 1190.29
  A 0.63 0.63 0.0 0 0 89.44 1190.54
  C 132.46 1192.01 174.99 1193.99 217.67 1199.25
  C 217.78 1204.08 220.91 1207.64 220.73 1211.85
  C 175.13 1203.93 130.70 1200.47 83.25 1199.01
  L 80.73 1198.92
  Q 79.92 1196.85 80.01 1195.23
  A 0.85 0.85 0.0 0 1 80.59 1194.48
  L 87.51 1192.11
  A 0.68 0.68 0.0 0 0 87.31 1190.78
  C 79.19 1190.56 70.59 1189.47 62.35 1190.28
  A 0.41 0.40 53.1 0 0 62.24 1191.06
  L 71.83 1194.89
  Q 72.21 1195.04 72.34 1195.43
  Q 72.81 1196.84 72.18 1198.74
  L 6.73 1197.54
  A 0.34 0.34 0.0 0 0 6.49 1197.64
  Q 6.39 1197.73 6.30 1197.83
  A 0.22 0.22 0.0 0 0 6.45 1198.20
  C 10.76 1198.28 15.13 1199.22 19.13 1199.30
  Q 45.83 1199.79 72.49 1200.78
  L 72.91 1212.62
  A 0.70 0.70 0.0 0 1 72.14 1213.34
  L 0.00 1205.92
  L 0.00 1051.34
  C 28.76 1048.19 57.84 1047.39 86.31 1053.43
  C 120.98 1060.79 151.92 1074.13 183.73 1089.29
  C 224.19 1108.57 268.34 1109.70 311.53 1100.39
  C 349.97 1092.11 387.11 1087.19 425.31 1086.13
  C 472.40 1084.83 519.10 1092.94 560.95 1113.02
  Q 567.93 1116.37 590.33 1127.65
  C 616.61 1140.87 651.61 1143.89 680.75 1139.02
  Q 698.47 1136.06 720.00 1129.58
  Z
  M 59.21 1188.08
  Q 60.95 1188.31 65.00 1188.44
  Q 78.58 1188.89 92.17 1188.73
  Q 92.65 1188.72 92.97 1188.36
  C 102.70 1177.17 103.88 1163.90 93.29 1153.12
  Q 92.94 1152.75 92.98 1152.25
  C 93.25 1148.85 95.06 1145.76 95.20 1141.83
  C 95.68 1128.20 82.11 1119.15 69.70 1123.55
  C 61.80 1126.34 56.14 1134.58 57.00 1143.19
  C 57.28 1145.99 58.39 1148.92 59.49 1151.79
  Q 59.69 1152.30 59.31 1152.70
  C 49.84 1162.60 49.24 1176.83 58.32 1187.59
  Q 58.67 1188.00 59.21 1188.08
  Z
  M 691.94 1216.33
  Q 692.47 1216.76 693.33 1216.24
  Q 693.74 1215.99 694.03 1215.61
  Q 696.16 1212.84 696.78 1209.01
  Q 699.13 1194.57 687.34 1187.14
  A 0.89 0.89 0.0 0 1 687.08 1185.88
  Q 694.31 1175.28 687.87 1166.92
  C 675.96 1151.44 652.06 1168.99 665.59 1185.40
  Q 665.98 1185.88 665.50 1186.26
  Q 646.53 1201.52 661.77 1220.96
  Q 662.09 1221.37 662.60 1221.28
  C 670.70 1219.74 681.60 1216.24 690.96 1216.00
  Q 691.51 1215.99 691.94 1216.33
  Z
  M 677.75 1226.72
  L 677.54 1238.21
  Q 677.51 1239.97 679.23 1239.57
  L 686.73 1237.82
  Q 687.26 1237.69 687.39 1237.17
  C 687.98 1234.86 686.79 1232.99 686.52 1231.32
  Q 685.95 1227.76 686.36 1224.40
  A 0.78 0.78 0.0 0 0 685.38 1223.56
  L 678.81 1225.36
  A 1.45 1.44 -7.3 0 0 677.75 1226.72
  Z"
/>
<path fill="#1c1f26" d="
  M 58.32 1187.59
  C 49.24 1176.83 49.84 1162.60 59.31 1152.70
  Q 59.69 1152.30 59.49 1151.79
  C 58.39 1148.92 57.28 1145.99 57.00 1143.19
  C 56.14 1134.58 61.80 1126.34 69.70 1123.55
  C 82.11 1119.15 95.68 1128.20 95.20 1141.83
  C 95.06 1145.76 93.25 1148.85 92.98 1152.25
  Q 92.94 1152.75 93.29 1153.12
  C 103.88 1163.90 102.70 1177.17 92.97 1188.36
  Q 92.65 1188.72 92.17 1188.73
  Q 78.58 1188.89 65.00 1188.44
  Q 60.95 1188.31 59.21 1188.08
  Q 58.67 1188.00 58.32 1187.59
  Z"
/>
<path fill="#1c1f26" d="
  M 253.29 1202.87
  L 217.05 1197.01
  Q 218.28 1188.03 225.19 1182.77
  Q 225.64 1182.43 225.41 1181.92
  C 222.87 1176.41 220.84 1172.51 224.90 1166.86
  C 235.19 1152.56 255.63 1167.23 245.81 1181.51
  A 1.07 1.07 0.0 0 0 246.05 1182.98
  Q 255.80 1190.22 253.29 1202.87
  Z"
/>
<path fill="#1c1f26" d="
  M 690.96 1216.00
  C 681.60 1216.24 670.70 1219.74 662.60 1221.28
  Q 662.09 1221.37 661.77 1220.96
  Q 646.53 1201.52 665.50 1186.26
  Q 665.98 1185.88 665.59 1185.40
  C 652.06 1168.99 675.96 1151.44 687.87 1166.92
  Q 694.31 1175.28 687.08 1185.88
  A 0.89 0.89 0.0 0 0 687.34 1187.14
  Q 699.13 1194.57 696.78 1209.01
  Q 696.16 1212.84 694.03 1215.61
  Q 693.74 1215.99 693.33 1216.24
  Q 692.47 1216.76 691.94 1216.33
  Q 691.51 1215.99 690.96 1216.00
  Z"
/>
<path fill="#6f8299" d="
  M 217.05 1197.01
  L 253.29 1202.87
  Q 290.02 1209.08 354.75 1218.75
  Q 428.10 1229.71 499.01 1228.72
  Q 497.82 1229.23 496.25 1229.02
  Q 494.53 1228.80 494.24 1230.21
  A 0.45 0.45 0.0 0 0 494.72 1230.75
  Q 495.68 1230.67 496.25 1231.00
  Q 433.39 1231.70 373.00 1223.50
  Q 316.30 1215.80 252.61 1204.76
  L 217.67 1199.25
  C 174.99 1193.99 132.46 1192.01 89.44 1190.54
  A 0.63 0.63 0.0 0 1 88.96 1190.29
  Q 88.45 1189.62 88.92 1189.22
  Q 89.16 1189.01 89.64 1189.01
  Q 153.51 1189.39 217.05 1197.01
  Z"
/>
<path fill="#1c1f26" d="
  M 80.73 1198.92
  L 72.18 1198.74
  Q 72.81 1196.84 72.34 1195.43
  Q 72.21 1195.04 71.83 1194.89
  L 62.24 1191.06
  A 0.41 0.40 53.1 0 1 62.35 1190.28
  C 70.59 1189.47 79.19 1190.56 87.31 1190.78
  A 0.68 0.68 0.0 0 1 87.51 1192.11
  L 80.59 1194.48
  A 0.85 0.85 0.0 0 0 80.01 1195.23
  Q 79.92 1196.85 80.73 1198.92
  Z"
/>
<path fill="#414659" d="
  M 72.18 1198.74
  L 80.73 1198.92
  L 83.25 1199.01
  Q 82.93 1199.75 83.32 1200.93
  L 80.41 1201.01
  L 72.49 1200.78
  Q 45.83 1199.79 19.13 1199.30
  C 15.13 1199.22 10.76 1198.28 6.45 1198.20
  A 0.22 0.22 0.0 0 1 6.30 1197.83
  Q 6.39 1197.73 6.49 1197.64
  A 0.34 0.34 0.0 0 1 6.73 1197.54
  L 72.18 1198.74
  Z"
/>
<path fill="#6f8299" d="
  M 83.25 1199.01
  C 130.70 1200.47 175.13 1203.93 220.73 1211.85
  L 243.16 1215.69
  C 310.38 1226.95 370.09 1236.60 434.06 1238.33
  Q 445.06 1238.63 455.97 1239.02
  Q 455.67 1239.49 456.77 1241.00
  Q 393.88 1240.52 331.69 1231.52
  Q 284.50 1224.70 237.96 1217.00
  L 233.59 1216.45
  Q 191.14 1208.15 145.31 1204.44
  Q 112.41 1201.78 83.32 1200.93
  Q 82.93 1199.75 83.25 1199.01
  Z"
/>
<path fill="#1c1f26" d="
  M 217.67 1199.25
  L 252.61 1204.76
  C 251.03 1209.46 246.99 1212.69 243.16 1215.69
  L 220.73 1211.85
  C 220.91 1207.64 217.78 1204.08 217.67 1199.25
  Z"
/>
<path fill="#1c1f26" d="
  M 72.49 1200.78
  L 80.41 1201.01
  L 80.12 1213.81
  Q 80.11 1214.15 80.45 1214.19
  L 232.34 1230.33
  Q 232.94 1230.40 232.97 1229.79
  L 233.59 1216.45
  L 237.96 1217.00
  L 237.91 1230.23
  A 0.86 0.85 -87.0 0 0 238.67 1231.08
  Q 279.08 1235.58 319.68 1240.12
  C 391.40 1248.14 464.06 1251.41 536.21 1251.77
  Q 536.85 1251.77 536.61 1251.17
  L 534.52 1245.89
  A 0.94 0.94 0.0 0 0 533.69 1245.29
  L 523.81 1244.80
  A 1.03 0.85 32.5 0 1 523.23 1243.03
  Q 523.83 1242.85 523.95 1241.36
  L 528.67 1241.73
  Q 529.17 1241.77 529.37 1241.32
  Q 530.49 1238.75 530.31 1236.24
  Q 529.05 1234.22 531.25 1233.75
  Q 534.68 1233.02 543.10 1234.26
  L 566.41 1234.53
  Q 566.97 1234.53 566.96 1233.98
  L 566.88 1224.77
  Q 568.54 1224.44 568.27 1224.97
  L 568.10 1233.83
  Q 568.09 1234.44 568.69 1234.44
  L 577.96 1234.53
  L 594.91 1234.95
  L 596.29 1239.49
  Q 596.45 1240.01 597.00 1239.97
  L 600.59 1239.74
  L 602.81 1243.46
  A 1.02 1.02 0.0 0 1 601.93 1245.01
  L 590.19 1244.93
  A 1.76 1.76 0.0 0 0 588.47 1246.30
  L 587.66 1249.93
  Q 587.45 1250.86 588.41 1250.81
  Q 614.85 1249.43 640.57 1245.89
  L 647.67 1246.67
  L 663.68 1249.11
  L 692.84 1253.77
  A 1.70 1.70 0.0 0 0 694.80 1251.98
  L 693.81 1236.78
  Q 693.77 1236.26 694.27 1236.13
  L 720.00 1228.86
  L 720.00 1440.00
  L 0.00 1440.00
  L 0.00 1205.92
  L 72.14 1213.34
  A 0.70 0.70 0.0 0 0 72.91 1212.62
  L 72.49 1200.78
  Z
  M 575.92 1245.53
  A 0.73 0.73 0.0 0 0 575.21 1245.00
  L 548.91 1245.02
  A 0.73 0.73 0.0 0 0 548.22 1245.53
  L 546.43 1251.05
  A 0.73 0.73 0.0 0 0 547.14 1252.00
  L 576.64 1251.55
  A 0.73 0.73 0.0 0 0 577.34 1250.63
  L 575.92 1245.53
  Z"
/>
<path fill="#2a303e" d="
  M 80.41 1201.01
  L 83.32 1200.93
  Q 112.41 1201.78 145.31 1204.44
  Q 191.14 1208.15 233.59 1216.45
  L 232.97 1229.79
  Q 232.94 1230.40 232.34 1230.33
  L 80.45 1214.19
  Q 80.11 1214.15 80.12 1213.81
  L 80.41 1201.01
  Z"
/>
<path fill="#2a303e" d="
  M 252.61 1204.76
  Q 316.30 1215.80 373.00 1223.50
  Q 433.39 1231.70 496.25 1231.00
  L 544.27 1231.02
  Q 544.97 1231.02 544.62 1231.63
  L 543.10 1234.26
  Q 534.68 1233.02 531.25 1233.75
  Q 529.05 1234.22 530.31 1236.24
  L 525.49 1238.42
  A 1.05 0.94 -54.4 0 1 525.08 1238.51
  L 455.97 1239.02
  Q 445.06 1238.63 434.06 1238.33
  C 370.09 1236.60 310.38 1226.95 243.16 1215.69
  C 246.99 1212.69 251.03 1209.46 252.61 1204.76
  Z"
/>
<path fill="#2a303e" d="
  M 237.96 1217.00
  Q 284.50 1224.70 331.69 1231.52
  Q 393.88 1240.52 456.77 1241.00
  L 523.95 1241.36
  Q 523.83 1242.85 523.23 1243.03
  A 1.03 0.85 32.5 0 0 523.81 1244.80
  L 533.69 1245.29
  A 0.94 0.94 0.0 0 1 534.52 1245.89
  L 536.61 1251.17
  Q 536.85 1251.77 536.21 1251.77
  C 464.06 1251.41 391.40 1248.14 319.68 1240.12
  Q 279.08 1235.58 238.67 1231.08
  A 0.86 0.85 -87.0 0 1 237.91 1230.23
  L 237.96 1217.00
  Z"
/>
<path fill="#5c627a" d="
  M 663.68 1249.11
  L 647.67 1246.67
  Q 651.60 1244.46 657.29 1244.05
  A 1.48 1.47 0.9 0 0 658.65 1242.74
  Q 659.73 1232.72 658.27 1222.44
  L 662.65 1221.51
  Q 663.14 1221.40 663.58 1221.65
  C 667.08 1223.65 674.01 1224.94 674.01 1230.12
  Q 674.01 1234.57 673.96 1239.04
  A 1.04 1.03 72.9 0 1 673.53 1239.86
  Q 670.76 1241.84 667.43 1242.10
  C 662.87 1242.45 664.85 1246.48 663.68 1249.11
  Z"
/>
<path fill="#6f8299" d="
  M 658.27 1222.44
  Q 659.73 1232.72 658.65 1242.74
  A 1.48 1.47 0.9 0 1 657.29 1244.05
  Q 651.60 1244.46 647.67 1246.67
  L 640.57 1245.89
  L 616.34 1241.99
  Q 618.46 1237.15 616.25 1231.81
  L 658.27 1222.44
  Z"
/>
<path fill="#383b4c" d="
  M 677.75 1226.72
  A 1.45 1.44 -7.3 0 1 678.81 1225.36
  L 685.38 1223.56
  A 0.78 0.78 0.0 0 1 686.36 1224.40
  Q 685.95 1227.76 686.52 1231.32
  C 686.79 1232.99 687.98 1234.86 687.39 1237.17
  Q 687.26 1237.69 686.73 1237.82
  L 679.23 1239.57
  Q 677.51 1239.97 677.54 1238.21
  L 677.75 1226.72
  Z"
/>
<path fill="#83bbf8" d="
  M 577.96 1234.53
  L 568.69 1234.44
  Q 568.09 1234.44 568.10 1233.83
  L 568.27 1224.97
  Q 569.40 1223.91 570.69 1225.06
  Q 572.76 1226.92 577.96 1234.53
  Z"
/>
<path fill="#83bbf8" d="
  M 566.88 1224.77
  L 566.96 1233.98
  Q 566.97 1234.53 566.41 1234.53
  L 543.10 1234.26
  L 544.62 1231.63
  Q 544.97 1231.02 544.27 1231.02
  L 496.25 1231.00
  Q 495.68 1230.67 494.72 1230.75
  A 0.45 0.45 0.0 0 1 494.24 1230.21
  Q 494.53 1228.80 496.25 1229.02
  Q 497.82 1229.23 499.01 1228.72
  L 546.12 1228.41
  Q 546.69 1228.40 547.02 1227.93
  L 548.90 1225.18
  Q 549.19 1224.76 549.70 1224.76
  L 566.88 1224.77
  Z"
/>
<path fill="#83bbf8" d="
  M 616.25 1231.81
  Q 618.46 1237.15 616.34 1241.99
  L 600.59 1239.74
  L 597.00 1239.97
  Q 596.45 1240.01 596.29 1239.49
  L 594.91 1234.95
  C 601.30 1236.21 609.72 1233.30 616.25 1231.81
  Z"
/>
<path fill="#83bbf8" d="
  M 530.31 1236.24
  Q 530.49 1238.75 529.37 1241.32
  Q 529.17 1241.77 528.67 1241.73
  L 523.95 1241.36
  L 456.77 1241.00
  Q 455.67 1239.49 455.97 1239.02
  L 525.08 1238.51
  A 1.05 0.94 -54.4 0 0 525.49 1238.42
  L 530.31 1236.24
  Z"
/>
<path fill="#2a303e" d="
  M 600.59 1239.74
  L 616.34 1241.99
  L 640.57 1245.89
  Q 614.85 1249.43 588.41 1250.81
  Q 587.45 1250.86 587.66 1249.93
  L 588.47 1246.30
  A 1.76 1.76 0.0 0 1 590.19 1244.93
  L 601.93 1245.01
  A 1.02 1.02 0.0 0 0 602.81 1243.46
  L 600.59 1239.74
  Z"
/>
<path fill="#2a303e" d="
  M 575.92 1245.53
  L 577.34 1250.63
  A 0.73 0.73 0.0 0 1 576.64 1251.55
  L 547.14 1252.00
  A 0.73 0.73 0.0 0 1 546.43 1251.05
  L 548.22 1245.53
  A 0.73 0.73 0.0 0 1 548.91 1245.02
  L 575.21 1245.00
  A 0.73 0.73 0.0 0 1 575.92 1245.53
  Z"
/>
</svg>
