<?xml version="1.0" encoding="UTF-8" standalone="no"?>
<!-- Created with Inkscape (http://www.inkscape.org/) -->

<svg
   width="1080mm"
   height="2400mm"
   viewBox="0 0 1080 2400"
   version="1.1"
   id="svg1"
   inkscape:export-filename="phone focus.png"
   inkscape:export-xdpi="100"
   inkscape:export-ydpi="100"
   inkscape:version="1.3.2 (091e20ef0f, 2023-11-25, custom)"
   sodipodi:docname="phone wave.svg"
   xmlns:inkscape="http://www.inkscape.org/namespaces/inkscape"
   xmlns:sodipodi="http://sodipodi.sourceforge.net/DTD/sodipodi-0.dtd"
   xmlns="http://www.w3.org/2000/svg"
   xmlns:svg="http://www.w3.org/2000/svg">
  <sodipodi:namedview
     id="namedview1"
     pagecolor="#ffffff"
     bordercolor="#111111"
     borderopacity="1"
     inkscape:showpageshadow="0"
     inkscape:pageopacity="0"
     inkscape:pagecheckerboard="1"
     inkscape:deskcolor="#d1d1d1"
     inkscape:document-units="mm"
     inkscape:zoom="0.067244833"
     inkscape:cx="1799.3948"
     inkscape:cy="3732.6288"
     inkscape:window-width="1912"
     inkscape:window-height="1029"
     inkscape:window-x="4"
     inkscape:window-y="24"
     inkscape:window-maximized="1"
     inkscape:current-layer="g1" />
  <defs
     id="defs1">
    <inkscape:path-effect
       effect="fillet_chamfer"
       id="path-effect12597"
       is_visible="true"
       lpeversion="1"
       nodesatellites_param="F,0,0,1,0,0,0,1 @ F,0,0,1,0,235.51521,0,1 @ F,0,0,1,0,0,0,1 @ F,0,0,1,0,0,0,1"
       unit="px"
       method="auto"
       mode="F"
       radius="0"
       chamfer_steps="1"
       flexible="false"
       use_knot_distance="true"
       apply_no_radius="true"
       apply_with_radius="true"
       only_selected="false"
       hide_knots="false" />
    <inkscape:path-effect
       effect="fillet_chamfer"
       id="path-effect13008"
       is_visible="true"
       lpeversion="1"
       nodesatellites_param="F,0,0,1,0,0,0,1 @ F,0,0,1,0,121.78946,0,1 @ F,0,0,1,0,175.81676,0,1 @ F,0,0,1,0,108.10727,0,1 @ F,0,0,1,0,0,0,1 @ F,0,0,1,0,0,0,1 @ F,0,0,1,0,0,0,1"
       unit="px"
       method="auto"
       mode="F"
       radius="0"
       chamfer_steps="1"
       flexible="false"
       use_knot_distance="true"
       apply_no_radius="true"
       apply_with_radius="true"
       only_selected="false"
       hide_knots="false" />
    <inkscape:path-effect
       effect="fillet_chamfer"
       id="path-effect13006"
       is_visible="true"
       lpeversion="1"
       nodesatellites_param="F,0,0,1,0,0,0,1 @ F,0,0,1,0,0,0,1 @ F,0,0,1,0,0,0,1 @ F,0,0,1,0,91.600865,0,1 @ F,0,0,1,0,175.47143,0,1 @ F,0,0,1,0,146.03495,0,1 @ F,0,0,1,0,0,0,1 @ F,0,0,1,0,0,0,1 @ F,0,0,1,0,0,0,1"
       unit="px"
       method="auto"
       mode="F"
       radius="0"
       chamfer_steps="1"
       flexible="false"
       use_knot_distance="true"
       apply_no_radius="true"
       apply_with_radius="true"
       only_selected="false"
       hide_knots="false" />
    <inkscape:path-effect
       effect="fillet_chamfer"
       id="path-effect8394"
       is_visible="true"
       lpeversion="1"
       nodesatellites_param="F,0,0,1,0,0,0,1 @ F,0,0,1,0,32.517591,0,1 @ F,0,0,1,0,290.52643,0,1 @ F,0,0,1,0,0,0,1 @ F,0,0,1,0,0,0,1 @ F,0,0,1,0,0,0,1"
       unit="px"
       method="auto"
       mode="F"
       radius="0"
       chamfer_steps="1"
       flexible="false"
       use_knot_distance="true"
       apply_no_radius="true"
       apply_with_radius="true"
       only_selected="false"
       hide_knots="false" />
    <inkscape:path-effect
       effect="fillet_chamfer"
       id="path-effect8398"
       is_visible="true"
       lpeversion="1"
       nodesatellites_param="F,0,0,1,0,0,0,1 @ F,0,0,1,0,282.44651,0,1 @ F,0,0,1,0,185.75051,0,1 @ F,0,0,1,0,0,0,1 @ F,0,0,1,0,0,0,1 @ F,0,0,1,0,0,0,1"
       unit="px"
       method="auto"
       mode="F"
       radius="0"
       chamfer_steps="1"
       flexible="false"
       use_knot_distance="true"
       apply_no_radius="true"
       apply_with_radius="true"
       only_selected="false"
       hide_knots="false" />
  </defs>
  <g
     inkscape:label="Layer 1"
     inkscape:groupmode="layer"
     id="layer1">
    <g
       id="g1"
       transform="matrix(0.89667495,0,0,0.89667495,112.85908,115.16611)">
      <rect
         style="fill:#525ec0;fill-opacity:1;stroke:#696969;stroke-width:0.0314043"
         id="rect659"
         width="1247.0259"
         height="718.59863"
         x="-150.40921"
         y="1145.4709"
         rx="4.0830669"
         ry="4.0830669" />
      <rect
         style="fill:#525ec0;fill-opacity:1;stroke:#696969;stroke-width:0.0502128"
         id="rect13004"
         width="1315.9399"
         height="2038.3197"
         x="-192.09286"
         y="-128.43684"
         rx="4.0830669"
         ry="10.438462" />
      <path
         style="fill:#3e4fa1;fill-opacity:1;stroke:#696969;stroke-width:0.2"
         d="m 1941.343,2433.5243 c 1996.7048,-219.1323 2395.8134,-877.05 3195.6993,-1131.5333 123.8823,-39.4131 328.4432,-26.1469 450.2218,19.5244 892.0704,334.5584 1568.0085,837.4305 2221.7957,845.3337 l -98.6853,794.4671 C 5786.1144,2790.4463 3731.2209,3148.6222 1941.343,2433.5243 Z"
         id="path11569"
         sodipodi:nodetypes="ccccc"
         inkscape:path-effect="#path-effect12597"
         inkscape:original-d="m 1941.343,2433.5243 c 2177.0431,-238.9239 2454.8746,-999.4729 3423.7116,-1189.9932 1004.1074,327.4091 1737.0079,914.7716 2444.0052,923.318 l -98.6853,794.4671 C 5786.1144,2790.4463 3731.2209,3148.6222 1941.343,2433.5243 Z"
         transform="matrix(0.15702122,0,0,0.15702122,-130.57651,1168.7213)" />
      <path
         style="fill:#2d4186;fill-opacity:1;stroke:#696969;stroke-width:0.2"
         d="m -51.393461,1994.3073 c 312.437711,-72.7291 563.526291,-159.7524 823.908771,-187.3284 66.87162,-7.0821 175.92772,-5.0043 242.87459,1.4732 995.6303,96.3328 1342.0121,548.9035 2150.0861,617.6844 96.7304,8.2334 254.3182,5.8726 350.9575,-3.459 741.5082,-71.6011 999.7548,-375.2843 1421.9949,-416.9247 59.3882,-5.8567 156.3903,-4.1899 215.9505,-0.1205 878.4987,60.0234 1761.8832,668.295 2641.1774,994.0904 l -2.8042,637.9969 -7971.87045,-584.8015 z"
         id="path8924"
         sodipodi:nodetypes="cccccccc"
         inkscape:path-effect="#path-effect13008"
         inkscape:original-d="m -51.393461,1994.3073 c 360.656601,-83.9535 639.566681,-186.9537 945.387951,-195.5771 1163.21911,74.2663 1473.67281,622.7934 2447.05361,635.9376 946.3559,-39.3309 1180.3335,-439.1999 1705.3323,-433.5958 914.0739,14.2454 1833.8412,659.5016 2749.1759,998.6507 l -2.8042,637.9969 -7971.87045,-584.8015 z"
         transform="matrix(0.15702122,0,0,0.15702122,-130.57651,1168.7213)" />
      <path
         style="fill:#1d326b;fill-opacity:0.613251;stroke:#696969;stroke-width:0.2"
         d="m -20.590591,2257.4641 c 210.197181,-66.5042 381.147411,-65.6059 559.130481,-76.7857 582.92291,30.7061 1164.11091,386.5909 1746.04411,602.7909 417.4519,-138.0413 863.5457,-261.821 1414.0649,-310.6485 50.3914,-4.4694 132.3106,-9.8793 182.8727,-8.6782 305.8526,7.2658 644.0894,124.6491 1025.2529,171.7451 96.1603,11.8814 252.9102,6.11 347.091,-16.5281 433.3488,-104.1635 911.0489,-370.3477 1320.0086,-436.9986 79.5483,-12.9646 210.7074,-12.8359 290.6084,-2.08 288.252,38.8033 572.6371,153.5858 857.5323,258.345 l 140.7477,968.4516 -7916.619159,-441.3301 z"
         id="path8592"
         sodipodi:nodetypes="cccccccccc"
         inkscape:path-effect="#path-effect13006"
         inkscape:original-d="m -20.590591,2257.4641 c 210.197181,-66.5042 381.147411,-65.6059 559.130481,-76.7857 582.92291,30.7061 1164.11091,386.5909 1746.04411,602.7909 440.2905,-145.5935 912.4426,-275.3222 1505.3709,-317.9795 374.6081,-20.9958 798.2399,158.8446 1291.5395,186.2524 526.5469,-67.7697 1147.0257,-467.7325 1637.5638,-484.1693 338.27,12.716 670.2655,148.7188 1002.9566,271.0531 l 140.7477,968.4516 -7916.619159,-441.3301 z"
         transform="matrix(0.15702122,0,0,0.15702122,-130.57651,1168.7213)" />
      <path
         style="fill:#101944;fill-opacity:1;stroke:#696969;stroke-width:0.2"
         d="M -7.6679707,2759.6997 C 520.41767,2916.9386 1071.6465,2535.0175 1954.3405,2475.0383 c 17.9175,-1.2175 47.0029,-2.5796 64.9589,-2.8973 816.5347,-14.4453 1753.9703,478.5574 2590.7207,566.2819 159.4678,16.7185 420.3234,19.9294 580.4384,10.6821 835.1091,-48.2306 1659.4997,-450.9553 2506.6291,-872.8303 l 43.806,1840.2622 -7884.52332,-209.973 z"
         id="path6494"
         sodipodi:nodetypes="ccccccc"
         inkscape:path-effect="#path-effect8394"
         inkscape:original-d="M -7.6679707,2759.6997 C 526.85983,2918.8568 1085.0989,2525.6191 1986.7932,2472.9885 c 919.5286,-31.7723 1997.3772,600.6656 2913.2751,578.0998 935.0126,42.7335 1851.863,-404.1207 2797.0193,-874.8136 l 43.806,1840.2622 -7884.52332,-209.973 z"
         transform="matrix(0.15702122,0,0,0.15702122,-130.57651,1168.7213)" />
      <path
         style="fill:#040a24;fill-opacity:1;stroke:#696969;stroke-width:0.2"
         d="m -7.08135,3008.1141 c 801.25382,0.9147 1034.18755,381.8316 2442.91465,675.5785 152.7015,31.8412 403.8116,51.2565 559.3067,39.0622 1058.3212,-82.9961 1930.5313,-457.2935 2888.3252,-523.4049 102.3353,-7.0636 268.6573,-6.1502 371.1227,-1.1617 336.2299,16.3693 692.5642,57.9843 1464.0546,308.6509 l -18.0122,889.3408 -7755.90107,4.0827 z"
         id="path1666"
         sodipodi:nodetypes="ccccccc"
         inkscape:path-effect="#path-effect8398"
         inkscape:original-d="m -7.08135,3008.1141 c 851.15006,0.9717 1060.99445,430.7466 2720.19035,729.3288 1258.6342,-31.6435 2238.9476,-519.1165 3355.8848,-546.8549 404.9798,15.7355 736.5226,19.5654 1649.6487,316.2511 l -18.0122,889.3408 -7755.90107,4.0827 z"
         transform="matrix(0.15702122,0,0,0.15702122,-130.57651,1168.7213)" />
      <rect
         style="fill:#040a24;stroke-width:1.0327;stroke-linecap:round;fill-opacity:1"
         id="rect1"
         width="1231.7152"
         height="781.68573"
         x="-153.12943"
         y="1766.4325" />
      <rect
         style="fill:#525ec0;fill-opacity:1;stroke-width:1.0327;stroke-linecap:round"
         id="rect2"
         width="1222.4807"
         height="1273.9077"
         x="-125.86398"
         y="-128.43684" />
    </g>
  </g>
</svg>
